<svg width="208" height="45" viewBox="0 0 208 45" fill="none" xmlns="http://www.w3.org/2000/svg">
<rect width="204" height="41" transform="translate(2 2)" fill="#C13221"/>
<path d="M2.71576 2.60565C28.9275 1.55401 43.1749 2.08474 69.8993 2.60565C96.8745 3.13144 111.889 3.13146 138.101 2.60564C164.336 2.07934 179.072 2.07985 205.284 2.60566" stroke="black" stroke-width="3" stroke-linecap="round" stroke-linejoin="round"/>
<path d="M2.71576 42.6057C28.9275 41.554 43.1749 42.0847 69.8993 42.6056C96.8745 43.1314 111.889 43.1315 138.101 42.6056C164.336 42.0793 179.072 42.0798 205.284 42.6057" stroke="black" stroke-width="3" stroke-linecap="round" stroke-linejoin="round"/>
<path d="M206 2L206 43" stroke="black" stroke-width="3" stroke-linecap="round" stroke-linejoin="round"/>
<path d="M2.43352 43C1.68076 37.8241 2.06065 35.0108 2.43351 29.7337C2.80987 24.407 2.80989 21.4422 2.43351 16.2663C2.05679 11.0858 2.05715 8.17588 2.43352 3" stroke="black" stroke-width="3" stroke-linecap="round" stroke-linejoin="round"/>
</svg>
