<svg width="44" height="45" viewBox="0 0 44 45" fill="none" xmlns="http://www.w3.org/2000/svg">
<path d="M2.14038 2.60565C7.27994 1.55401 10.0735 2.08474 15.3136 2.60565C20.6029 3.13144 23.5469 3.13146 28.6864 2.60564C33.8307 2.07934 36.7201 2.07985 41.8597 2.60566" stroke="black" stroke-width="3" stroke-linecap="round" stroke-linejoin="round"/>
<path d="M2.14038 42.6057C7.27994 41.554 10.0735 42.0847 15.3136 42.6056C20.6029 43.1314 23.5469 43.1315 28.6864 42.6056C33.8307 42.0793 36.7201 42.0798 41.8597 42.6057" stroke="black" stroke-width="3" stroke-linecap="round" stroke-linejoin="round"/>
<path d="M42 2L42 43" stroke="black" stroke-width="3" stroke-linecap="round" stroke-linejoin="round"/>
<path d="M2.085 43C1.9374 37.8241 2.01189 35.0108 2.085 29.7337C2.1588 24.407 2.1588 21.4422 2.085 16.2663C2.01114 11.0858 2.01121 8.17588 2.085 3" stroke="black" stroke-width="3" stroke-linecap="round" stroke-linejoin="round"/>
</svg>
