<svg width="24" height="24" viewBox="0 0 24 24" fill="none" xmlns="http://www.w3.org/2000/svg">
<g clip-path="url(#clip0_2_26543)">
<path d="M4.99718 11.4129C4.99718 10.8589 5.45222 10.4039 6.00518 10.4039H7.70534C8.25926 10.4039 8.7335 10.8589 8.7335 11.433V17.8449C8.93126 17.7853 9.16838 17.7258 9.44582 17.6663C9.82118 17.5674 10.0986 17.2314 10.0986 16.8349V8.87942C10.0986 8.3255 10.5537 7.8503 11.1268 7.8503H12.8269C13.3809 7.8503 13.8551 8.30534 13.8551 8.87942V16.2618C13.8551 16.2618 14.2708 16.0833 14.6855 15.9057C15.0023 15.7674 15.2001 15.4708 15.2001 15.1137V6.30758C15.2001 5.75366 15.6551 5.27846 16.209 5.27846H17.9092C18.4631 5.27846 18.9181 5.7335 18.9181 6.30758V13.5709C20.3812 12.5025 21.8845 11.2161 23.0711 9.67238C23.4273 9.21734 23.5261 8.6231 23.3284 8.06918C21.153 1.81574 14.3121 -1.5097 8.06342 0.667583C1.81478 2.84486 -1.50682 9.69158 0.667583 15.946C0.904703 16.6583 1.2215 17.3313 1.59686 17.9841C1.8935 18.4986 2.44742 18.7953 3.0407 18.7357C3.3575 18.7156 3.75302 18.6762 4.24646 18.6167C4.68134 18.5773 4.99814 18.201 4.99814 17.7652L4.99718 11.4129Z" fill="black"/>
<path d="M4.95703 21.7038C10.3158 25.6023 17.8105 24.4148 21.7052 19.0523C23.1884 16.994 23.9986 14.5201 23.9986 11.9876C23.9986 11.7102 23.9785 11.4337 23.9593 11.1562C19.5903 17.7063 11.5023 20.7735 4.95703 21.7038Z" fill="black"/>
</g>
<defs>
<clipPath id="clip0_2_26543">
<rect width="24" height="24" fill="white"/>
</clipPath>
</defs>
</svg>
